<svg width="639" height="190" viewBox="0 0 639 190" fill="none" xmlns="http://www.w3.org/2000/svg">
<circle cx="95" cy="95" r="95" fill="url(#paint0_linear_47_43)"/>
<rect x="40.1677" y="46.5436" width="25.5034" height="25.5034" rx="5" fill="white"/>
<rect x="75.2349" y="54.1946" width="86.0738" height="9.56376" rx="4.78188" fill="white"/>
<rect x="75.2349" y="89.8993" width="86.0738" height="9.56376" rx="4.78188" fill="white"/>
<rect x="75.2349" y="125.604" width="86.0738" height="9.56376" rx="4.78188" fill="white"/>
<rect x="40.1677" y="82.2483" width="25.5034" height="25.5034" rx="5" fill="white"/>
<mask id="path-7-inside-1_47_43" fill="white">
<rect x="40.1677" y="117.953" width="25.5034" height="25.5034" rx="5"/>
</mask>
<rect x="40.1677" y="117.953" width="25.5034" height="25.5034" rx="5" stroke="white" stroke-width="18" mask="url(#path-7-inside-1_47_43)"/>
<path d="M243.52 139V60.92H260.416V139H243.52ZM217.28 67.832V51.832H287.424V67.832H217.28ZM282.733 105.848H325.741V121.464H282.733V105.848ZM264.557 139L295.533 51.832H315.117L345.069 139H328.173L302.957 63.352H307.821L281.453 139H264.557ZM367.29 141.048C362.426 141.048 357.818 140.323 353.466 138.872C349.114 137.421 345.189 135.16 341.69 132.088C338.277 129.016 335.375 125.005 332.986 120.056L346.298 111.992C348.943 116.515 352.058 119.885 355.642 122.104C359.226 124.323 363.365 125.432 368.058 125.432C372.325 125.432 375.567 124.536 377.786 122.744C380.005 120.867 381.114 118.392 381.114 115.32C381.114 113.357 380.602 111.693 379.578 110.328C378.639 108.877 376.933 107.512 374.458 106.232C371.983 104.952 368.399 103.8 363.706 102.776C356.709 101.069 351.205 98.936 347.194 96.376C343.269 93.816 340.495 90.8293 338.874 87.416C337.253 83.9173 336.442 80.0773 336.442 75.896C336.442 70.8613 337.637 66.4667 340.026 62.712C342.501 58.872 345.999 55.8427 350.522 53.624C355.045 51.4053 360.421 50.296 366.65 50.296C373.818 50.296 379.834 51.704 384.698 54.52C389.562 57.2507 393.53 60.9627 396.602 65.656L383.29 74.744C380.901 71.672 378.17 69.496 375.098 68.216C372.111 66.8507 369.039 66.168 365.882 66.168C361.786 66.168 358.629 66.9787 356.41 68.6C354.277 70.2213 353.21 72.4827 353.21 75.384C353.21 77.944 354.277 80.1627 356.41 82.04C358.629 83.832 362.895 85.496 369.21 87.032C376.378 88.7387 382.095 90.8293 386.362 93.304C390.629 95.7787 393.658 98.7653 395.45 102.264C397.327 105.763 398.266 109.987 398.266 114.936C398.266 119.885 396.986 124.323 394.426 128.248C391.951 132.173 388.367 135.288 383.674 137.592C379.066 139.896 373.605 141.048 367.29 141.048ZM395.249 139V51.832H412.017V139H395.249ZM443.761 139L406.001 96.76V94.328L444.657 51.832H465.521L422.897 98.68L423.665 92.408L465.777 139H443.761ZM476.831 124.792C480.5 124.792 483.316 123.683 485.279 121.464C487.242 119.245 488.223 116.173 488.223 112.248V51.832H505.247V112.12C505.247 117.752 504.138 122.744 501.919 127.096C499.786 131.363 496.586 134.733 492.319 137.208C488.138 139.683 482.975 140.92 476.831 140.92C470.772 140.92 465.61 139.811 461.343 137.592C457.076 135.288 453.834 132.003 451.615 127.736C449.482 123.469 448.415 118.435 448.415 112.632V107.512H465.311V112.12C465.311 116.387 466.335 119.587 468.383 121.72C470.431 123.768 473.247 124.792 476.831 124.792ZM513.668 105.848H556.676V121.464H513.668V105.848ZM495.492 139L526.468 51.832H546.052L576.004 139H559.108L533.892 63.352H538.756L512.388 139H495.492ZM569.669 139V51.832H601.797C607.941 51.832 613.402 53.0693 618.181 55.544C622.96 58.0187 626.672 61.4747 629.317 65.912C632.048 70.3493 633.413 75.5547 633.413 81.528C633.413 87.5013 632.048 92.7067 629.317 97.144C626.672 101.581 622.96 105.037 618.181 107.512C613.402 109.901 607.941 111.096 601.797 111.096H582.981V95.096H600.133C605.082 95.096 609.008 93.944 611.909 91.64C614.81 89.2507 616.261 85.88 616.261 81.528C616.261 77.0053 614.81 73.592 611.909 71.288C609.008 68.984 605.082 67.832 600.133 67.832H582.853L586.437 64.12V139H569.669ZM616.005 139L596.805 103.288H615.237L634.309 139H616.005Z" fill="white"/>
<defs>
<linearGradient id="paint0_linear_47_43" x1="95" y1="0" x2="95" y2="190" gradientUnits="userSpaceOnUse">
<stop stop-color="#FF5656"/>
<stop offset="1" stop-color="#1164CF"/>
</linearGradient>
</defs>
</svg>
